<svg width="97" height="123" viewBox="0 0 97 123" fill="none" xmlns="http://www.w3.org/2000/svg">
<path fill-rule="evenodd" clip-rule="evenodd" d="M42.65 7.68C43.614 4.90865 45.0261 2.31421 46.83 0C45.9164 3.46077 45.4328 7.02093 45.39 10.6C45.54 17.07 48.57 20.05 53 28C59.4 39.52 56.3 50.66 47.79 59.85C50.85 49.59 52.29 43 50 35.47C49.2967 33.3104 48.3788 31.2266 47.26 29.25C44.4 24.04 41.26 19.74 41.57 13.45C41.6717 11.4829 42.0522 9.54016 42.7 7.68H42.65ZM10.89 54.6C10.9794 54.2074 11.165 53.8431 11.43 53.54C13 51.08 16.67 49 21.79 47.54C26.5418 46.2042 31.4167 45.3532 36.34 45C36.3446 46.4568 36.2309 47.9116 36 49.35C31.7166 49.6789 27.4761 50.4292 23.34 51.59C19.17 52.81 16.34 54.22 15.65 55.59L15.5 56.51C15.78 58.03 18.72 59.61 23.34 60.96C30.6107 62.8598 38.1062 63.7614 45.62 63.64C53.1153 63.7693 60.5935 62.8812 67.85 61C72.48 59.65 75.43 58.06 75.7 56.54L75.61 55.8C75.05 54.36 72.19 52.89 67.85 51.62C65.3088 50.9017 62.7232 50.3505 60.11 49.97C60.6178 48.6099 61.019 47.2123 61.31 45.79C64.0111 46.1983 66.6833 46.7795 69.31 47.53C74.79 49.14 78.62 51.4 79.98 54.09C80.1408 54.3437 80.2527 54.6252 80.31 54.92C80.4527 55.3697 80.5268 55.8383 80.53 56.31C80.53 56.43 80.53 56.54 80.53 56.65C80.71 58.36 80.83 60.04 80.91 61.65C85.91 60.07 89.7 60.65 92.37 62.58C93.5704 63.4816 94.5619 64.632 95.2764 65.9523C95.991 67.2727 96.4118 68.7319 96.51 70.23C96.7735 73.4334 96.1289 76.6462 94.65 79.5C91.56 85.7 84.73 91.2 74.23 91.22C73.86 91.88 73.47 92.52 73.07 93.14C77.1844 94.1194 81.1378 95.6818 84.81 97.78C88.75 100.2 90.98 103.13 90.98 106.42C90.98 111.42 85.52 115.77 76.69 118.64C68.69 121.26 57.63 122.88 45.49 122.88C33.35 122.88 22.3 121.26 14.28 118.64C5.46 115.77 0 111.46 0 106.42C0 103.13 2.23 100.2 6.17 97.78C9.93907 95.6285 14.0018 94.0385 18.23 93.06C14.8159 87.647 12.4104 81.6604 11.13 75.39C10.4113 72.0468 10.0327 68.6394 10 65.22C9.96107 62.2926 10.155 59.3667 10.58 56.47V56.28C10.584 55.7061 10.6889 55.1375 10.89 54.6ZM14.89 62.15C14.89 63.15 14.82 64.15 14.83 65.15C14.8592 68.2487 15.1942 71.337 15.83 74.37C18.59 87.03 24.69 95.67 32.03 100.37C36.1384 103.066 40.9504 104.492 45.8646 104.469C50.7787 104.446 55.5771 102.975 59.66 100.24C66.86 95.55 72.77 86.96 75.31 74.48C75.8776 71.5772 76.1722 68.6277 76.19 65.67V65.32C76.18 65.2303 76.18 65.1397 76.19 65.05C76.19 64.14 76.19 63.21 76.13 62.27C73.9947 63.4926 71.7132 64.4401 69.34 65.09C61.5853 67.1337 53.5886 68.1127 45.57 68C37.5486 68.1152 29.5487 67.1396 21.79 65.1C19.3633 64.4354 17.0337 63.4571 14.86 62.19L14.89 62.15ZM81 66.74C80.921 69.6537 80.5864 72.5548 80 75.41C79.2549 79.1385 78.1393 82.7832 76.67 86.29C83.67 85.54 88.2 81.67 90.35 77.36C91.4223 75.3122 91.9003 73.0053 91.73 70.7C91.6935 69.8878 91.4836 69.0928 91.1145 68.3684C90.7454 67.644 90.2256 67.007 89.59 66.5C87.86 65.27 85.01 65.1 80.95 66.74H81ZM70 97.33C67.7727 100 65.1648 102.329 62.26 104.24C57.4043 107.473 51.7073 109.211 45.874 109.239C40.0406 109.268 34.327 107.585 29.44 104.4C26.3832 102.446 23.6447 100.035 21.32 97.25C16.8882 98.1312 12.6205 99.6966 8.67 101.89C6.21 103.4 4.82 104.95 4.82 106.42C4.82 109.13 9 111.86 15.82 114.06C23.38 116.53 33.89 118.06 45.54 118.06C57.19 118.06 67.69 116.54 75.25 114.06C82.02 111.86 86.25 109.13 86.25 106.42C86.25 104.95 84.86 103.42 82.4 101.89C78.5267 99.7393 74.3439 98.2011 70 97.33ZM38 15.27C36.94 22.27 37.87 24.43 40.17 27.72C42.72 31.36 44.87 34.2 45.5 37.77C46.38 42.77 44.09 48.13 41.05 51.99C45.81 28.57 27.69 34.08 38 15.27Z" fill="white"/>
</svg>
