<svg width="61" height="43" viewBox="0 0 61 43" fill="none" xmlns="http://www.w3.org/2000/svg">
<path fill-rule="evenodd" clip-rule="evenodd" d="M44.5745 9.57542C44.6185 9.44454 44.628 9.34711 44.628 9.28408C44.628 9.09832 44.5457 8.61395 43.7392 7.85484C42.9269 7.0903 41.5898 6.26362 39.6879 5.50649C35.9013 3.99902 30.4648 3 24.3074 3C18.1501 3 12.7136 3.99902 8.92695 5.50649C7.02513 6.26362 5.68797 7.0903 4.8757 7.85484C4.06919 8.61395 3.9869 9.09832 3.9869 9.28408C3.9869 9.46983 4.06919 9.9542 4.8757 10.7133C5.68797 11.4778 7.02513 12.3045 8.92695 13.0617C12.7136 14.5691 18.1501 15.5682 24.3074 15.5682C30.4648 15.5682 35.9013 14.5691 39.6879 13.0617C41.5898 12.3045 42.9269 11.4778 43.7392 10.7133C44.1439 10.3324 44.3662 10.0207 44.4873 9.78111C44.4871 9.71289 44.4866 9.64461 44.4861 9.57628L44.5745 9.57542ZM47.4864 10.3131C47.5799 9.97526 47.628 9.6319 47.628 9.28408C47.628 4.15662 37.187 0 24.3074 0C11.4279 0 0.986902 4.15662 0.986902 9.28408C0.986902 9.52413 1.00979 9.76206 1.05474 9.99753L0.846756 9.99954C1.00262 28.3497 11.5695 43.1241 24.4486 42.9992C32.4561 42.9215 39.4722 37.1024 43.5967 28.3009C43.7466 28.7383 43.9497 29.1595 44.2223 29.5417C44.9718 30.592 46.4079 31.3938 47.8468 31.9109C49.3555 32.4532 51.1705 32.7917 52.9381 32.7005C54.6913 32.6101 56.5591 32.0853 57.9739 30.7163C59.4392 29.2984 60.1932 27.1962 60.0677 24.4708C59.9658 22.2581 59.2739 20.5154 58.1223 19.2335C56.9895 17.9727 55.5161 17.2726 54.0244 16.9151C51.6536 16.347 49.0195 16.5903 46.952 17.0601C47.2858 14.8835 47.4693 12.6267 47.4864 10.3131ZM44.2989 14.0672C40.2187 16.7642 32.7922 18.5682 24.3074 18.5682C15.6357 18.5682 8.06947 16.6839 4.05118 13.8876C4.73038 20.9122 7.04258 27.1017 10.3173 31.6803C14.1948 37.1018 19.2275 40.0497 24.4231 39.9993C29.6186 39.9489 34.6004 36.9039 38.3853 31.4081C41.495 26.8925 43.6679 20.8701 44.2989 14.0672ZM47.0587 20.1924C46.7295 21.243 46.383 22.6284 46.2138 23.9857C46.1073 24.8399 46.0777 25.632 46.1459 26.2969C46.2153 26.9751 46.3744 27.4033 46.548 27.6467C46.769 27.9563 47.5265 28.5163 48.8187 28.9808C50.0409 29.42 51.4943 29.6828 52.8464 29.6131C54.213 29.5426 55.3164 29.1443 56.0383 28.4458C56.7096 27.7962 57.2578 26.6867 57.1651 24.674C57.0925 23.0962 56.6237 22.0773 56.0051 21.3887C55.3676 20.6791 54.4612 20.1998 53.3402 19.9312C51.3296 19.4494 48.9108 19.715 47.0587 20.1924Z" fill="#DAB787" fill-opacity="0.91"/>
</svg>
