<svg width="820" height="107" viewBox="0 0 820 107" fill="none" xmlns="http://www.w3.org/2000/svg">
<path d="M0.107422 12.7646C0.107422 11.6162 0.250977 10.3652 0.538086 9.01172C0.866211 7.61719 1.3584 6.3457 2.01465 5.19727C2.71191 4.00781 3.57324 3.02344 4.59863 2.24414C5.62402 1.46484 6.85449 1.0752 8.29004 1.0752C8.29004 2.18262 8.06445 3.22852 7.61328 4.21289C7.20312 5.19727 6.73145 6.18164 6.19824 7.16602C5.70605 8.10938 5.23438 9.07324 4.7832 10.0576C4.37305 11.001 4.16797 12.0059 4.16797 13.0723C4.16797 13.5234 4.25 13.8926 4.41406 14.1797C4.61914 14.4258 4.82422 14.6719 5.0293 14.918C5.23438 15.1641 5.41895 15.4307 5.58301 15.7178C5.78809 16.0049 5.89062 16.374 5.89062 16.8252C5.89062 17.0303 5.87012 17.2559 5.8291 17.502C5.8291 17.748 5.76758 17.9736 5.64453 18.1787C5.5625 18.3838 5.39844 18.5479 5.15234 18.6709C4.94727 18.7529 4.61914 18.7529 4.16797 18.6709C3.22461 18.5068 2.46582 18.2607 1.8916 17.9326C1.3584 17.5635 0.948242 17.1328 0.661133 16.6406C0.415039 16.1484 0.250977 15.5742 0.168945 14.918C0.12793 14.2617 0.107422 13.5439 0.107422 12.7646ZM12.1045 9.13477C12.1045 7.94531 12.248 6.81738 12.5352 5.75098C12.8633 4.68457 13.335 3.76172 13.9502 2.98242C14.5654 2.16211 15.3652 1.52637 16.3496 1.0752C17.334 0.583008 18.5029 0.336914 19.8564 0.336914C19.8564 1.48535 19.5488 2.4082 18.9336 3.10547C18.3184 3.80273 17.6826 4.56152 17.0264 5.38184C16.3701 6.20215 15.8369 7.24805 15.4268 8.51953C15.0166 9.79102 14.9961 11.5957 15.3652 13.9336C15.3652 14.0566 15.2627 14.2207 15.0576 14.4258C14.8525 14.6309 14.6885 14.7334 14.5654 14.7334C13.8682 14.7334 13.335 14.5078 12.9658 14.0566C12.6377 13.6055 12.4121 13.0928 12.2891 12.5186C12.166 11.9033 12.1045 11.2881 12.1045 10.6729V9.13477ZM6.19824 103.02C9.47949 102.076 12.5762 100.354 15.4883 97.8516C18.3594 95.3906 21.0459 92.4375 23.5479 88.9922C26.0908 85.5879 28.4287 81.876 30.5615 77.8564C32.7354 73.8369 34.7041 69.7969 36.4678 65.7363C38.2725 61.6758 39.8926 57.7588 41.3281 53.9854C42.7637 50.2119 44.0146 46.9102 45.0811 44.0801C46.1885 41.209 46.9473 39.3018 47.3574 38.3584C47.8086 37.415 48.5469 36.2871 49.5723 34.9746C48.5469 36.082 47.2344 37.3945 45.6348 38.9121C44.0762 40.4297 42.374 41.8652 40.5283 43.2188C38.6826 44.5723 36.7754 45.7207 34.8066 46.6641C32.8379 47.6074 30.9717 48.0791 29.208 48.0791C28.0596 48.0791 27.1162 47.833 26.3779 47.3408C25.6807 46.8076 25.127 46.1514 24.7168 45.3721C24.3066 44.5518 24.0195 43.6494 23.8555 42.665C23.7324 41.6396 23.6709 40.6143 23.6709 39.5889C23.6709 38.7275 23.8965 37.4971 24.3477 35.8975C24.7988 34.2568 25.3936 32.4727 26.1318 30.5449C26.8701 28.6172 27.6904 26.6484 28.5928 24.6387C29.4951 22.6289 30.418 20.8037 31.3613 19.1631C32.3047 17.5225 33.1865 16.1895 34.0068 15.1641C34.8682 14.0977 35.5859 13.5645 36.1602 13.5645C36.6934 13.5645 37.165 13.6875 37.5752 13.9336C37.9854 14.1797 38.1904 14.5898 38.1904 15.1641C38.1904 15.9434 37.9854 16.6611 37.5752 17.3174C37.165 17.9326 36.5293 18.3018 35.668 18.4248C35.0938 19.0811 34.4375 20.0449 33.6992 21.3164C33.002 22.5469 32.3047 23.9414 31.6074 25.5C30.9102 27.0176 30.2539 28.6172 29.6387 30.2988C29.0234 31.9805 28.5518 33.5801 28.2236 35.0977C27.9365 36.6152 27.8135 37.9893 27.8545 39.2197C27.8955 40.4502 28.2236 41.373 28.8389 41.9883C29.4541 42.6035 30.377 42.8496 31.6074 42.7266C32.8379 42.6035 34.4785 41.9473 36.5293 40.7578C38.6211 39.2402 40.5898 37.5791 42.4355 35.7744C44.2812 33.9697 45.9834 32.1445 47.542 30.2988C49.1006 28.4531 50.4951 26.6689 51.7256 24.9463C52.9561 23.1826 54.0225 21.6035 54.9248 20.209C55.8271 18.7734 56.5449 17.584 57.0781 16.6406C57.6113 15.6973 57.96 15.1025 58.124 14.8564C58.5752 14.2002 58.9648 13.667 59.293 13.2568C59.6211 12.8057 59.9697 12.457 60.3389 12.2109C60.749 11.9648 61.2207 11.8008 61.7539 11.7188C62.2871 11.6367 63.0049 11.5957 63.9072 11.5957C63.5791 12.7031 63.1279 13.9336 62.5537 15.2871C61.9795 16.5996 61.1797 18.3223 60.1543 20.4551C59.1699 22.5469 57.9189 25.2334 56.4014 28.5146C54.8838 31.7549 53.0381 35.877 50.8643 40.8809C48.7314 45.8438 46.209 51.832 43.2969 58.8457C40.4258 65.8594 37.1035 74.1855 33.3301 83.8242C32.4688 85.5469 31.2383 87.4541 29.6387 89.5459C28.0801 91.6377 26.3574 93.668 24.4707 95.6367C22.625 97.6465 20.7178 99.4717 18.749 101.112C16.7393 102.753 14.8936 104.004 13.2119 104.865C11.4893 105.727 9.99219 106.055 8.7207 105.85C7.44922 105.645 6.6084 104.701 6.19824 103.02ZM59.416 51.832C59.416 51.668 59.416 51.3398 59.416 50.8477C59.457 50.3145 59.4775 49.9658 59.4775 49.8018C60.79 46.8076 62.4717 44.0391 64.5225 41.4961C66.5732 38.9531 68.8906 36.6973 71.4746 34.7285C71.5566 34.7285 71.6797 34.708 71.8438 34.667C72.0488 34.585 72.1924 34.5439 72.2744 34.5439C73.3818 34.5439 74.2842 34.79 74.9814 35.2822C75.7197 35.7334 76.2939 36.3486 76.7041 37.1279C77.1553 37.8662 77.4629 38.707 77.627 39.6504C77.791 40.5527 77.873 41.4346 77.873 42.2959C77.873 43.8955 77.5039 45.5771 76.7656 47.3408C76.0273 49.0635 75.0225 50.6631 73.751 52.1396C72.5205 53.5752 71.1055 54.7646 69.5059 55.708C67.9062 56.6104 66.2451 57.0615 64.5225 57.0615C62.7998 57.0615 61.5078 56.6104 60.6465 55.708C59.8262 54.7646 59.416 53.4727 59.416 51.832ZM64.2148 51.0938C64.2148 51.5449 64.3994 51.8525 64.7686 52.0166C65.1377 52.1807 65.5068 52.2627 65.876 52.2627C66.9014 52.2627 67.8857 51.9961 68.8291 51.4629C69.8135 50.8887 70.6748 50.1914 71.4131 49.3711C72.1924 48.5098 72.8076 47.5664 73.2588 46.541C73.71 45.5156 73.9355 44.5312 73.9355 43.5879C73.9355 43.1367 73.8945 42.6445 73.8125 42.1113C73.7715 41.5371 73.6484 41.0449 73.4434 40.6348C73.2383 40.1836 72.9102 39.835 72.459 39.5889C72.0488 39.3428 71.4541 39.3018 70.6748 39.4658C70.1006 39.5889 69.4443 40.1221 68.7061 41.0654C67.9678 42.0088 67.25 43.1162 66.5527 44.3877C65.8965 45.6182 65.3428 46.8691 64.8916 48.1406C64.4404 49.3711 64.2148 50.3555 64.2148 51.0938ZM80.5186 53.9238C80.5186 53.3086 80.7031 52.4473 81.0723 51.3398C81.4414 50.1914 81.9131 48.9609 82.4873 47.6484C83.1025 46.3359 83.7793 45.0029 84.5176 43.6494C85.2969 42.2959 86.0762 41.0654 86.8555 39.958C87.6348 38.8506 88.373 37.9482 89.0703 37.251C89.7676 36.5537 90.3828 36.2051 90.916 36.2051C92.0645 36.2051 92.6387 36.7588 92.6387 37.8662C92.6387 38.3584 92.5361 38.7686 92.3311 39.0967C92.167 39.4248 91.9619 39.7324 91.7158 40.0195C91.4697 40.3066 91.2031 40.5938 90.916 40.8809C90.6289 41.127 90.3828 41.4346 90.1777 41.8037C89.8086 42.4189 89.3574 43.2598 88.8242 44.3262C88.291 45.3926 87.7578 46.4385 87.2246 47.4639C86.7324 48.4482 86.3018 49.3301 85.9326 50.1094C85.5635 50.8887 85.3789 51.3193 85.3789 51.4014V52.2012C86.9785 51.9141 88.5166 51.2373 89.9932 50.1709C91.4697 49.0635 92.8643 47.7715 94.1768 46.2949C95.5303 44.8184 96.8018 43.2803 97.9912 41.6807C99.2217 40.04 100.37 38.543 101.437 37.1895C102.503 35.7949 103.508 34.6465 104.451 33.7441C105.395 32.8418 106.276 32.3906 107.097 32.3906C107.097 33.9082 106.789 35.2822 106.174 36.5127C105.559 37.7432 104.882 38.9531 104.144 40.1426C103.446 41.332 102.79 42.5625 102.175 43.834C101.56 45.0645 101.252 46.459 101.252 48.0176C101.252 48.6738 101.642 49.2686 102.421 49.8018C103.241 50.2939 104.164 50.7246 105.189 51.0938C106.256 51.4219 107.281 51.6885 108.266 51.8936C109.25 52.0986 109.927 52.2217 110.296 52.2627V53.8623C109.353 53.9033 108.184 53.9238 106.789 53.9238C105.395 53.8828 104 53.7188 102.605 53.4316C101.211 53.1445 99.9395 52.6729 98.791 52.0166C97.6836 51.3193 96.9453 50.3145 96.5762 49.002C95.5098 49.6992 94.4844 50.5195 93.5 51.4629C92.5156 52.4062 91.4902 53.2881 90.4238 54.1084C89.3984 54.9287 88.3115 55.626 87.1631 56.2002C86.0146 56.7744 84.7637 57.0615 83.4102 57.0615C82.5898 57.0615 81.8926 56.7129 81.3184 56.0156C80.7852 55.3184 80.5186 54.6211 80.5186 53.9238ZM123.585 52.2627C123.585 51.0322 123.831 49.9043 124.323 48.8789C124.856 47.8125 125.431 46.8076 126.046 45.8643C126.661 44.9209 127.215 43.9775 127.707 43.0342C128.24 42.0908 128.507 41.0859 128.507 40.0195C128.507 39.7734 128.486 39.4863 128.445 39.1582C128.445 38.7891 128.404 38.4404 128.322 38.1123C128.281 37.7842 128.158 37.5176 127.953 37.3125C127.789 37.0664 127.563 36.9434 127.276 36.9434C127.235 36.9434 127.153 36.9639 127.03 37.0049C126.948 37.0049 126.907 37.0254 126.907 37.0664C126.333 37.8457 125.636 38.7275 124.815 39.7119C124.036 40.6553 123.195 41.5986 122.293 42.542C121.391 43.4854 120.509 44.3877 119.647 45.249C118.786 46.1104 118.007 46.8281 117.31 47.4023C116.817 47.8535 116.141 48.4688 115.279 49.248C114.459 50.0273 113.618 50.8066 112.757 51.5859C111.937 52.3242 111.198 52.9805 110.542 53.5547C109.927 54.1289 109.578 54.416 109.496 54.416L106.666 52.0166C107.035 52.0166 107.404 51.9346 107.773 51.7705C108.102 51.6064 108.43 51.4219 108.758 51.2168C111.219 49.5762 113.434 47.6895 115.402 45.5566C117.412 43.4238 119.381 41.127 121.309 38.666C121.391 38.543 121.596 38.1943 121.924 37.6201C122.293 37.0049 122.683 36.3281 123.093 35.5898C123.503 34.8105 123.913 34.0518 124.323 33.3135C124.733 32.5342 125.041 31.9189 125.246 31.4678C125.492 30.9346 125.636 30.5039 125.677 30.1758C125.759 29.8477 125.82 29.6016 125.861 29.4375C125.943 29.2324 126.066 29.0889 126.23 29.0068C126.395 28.9248 126.743 28.8838 127.276 28.8838C127.358 28.8838 127.543 28.9043 127.83 28.9453C128.158 28.9863 128.363 29.0273 128.445 29.0684C128.979 30.1758 129.45 31.1602 129.86 32.0215C130.271 32.8828 130.619 33.7031 130.906 34.4824C131.193 35.2207 131.398 35.9795 131.521 36.7588C131.686 37.5381 131.768 38.3994 131.768 39.3428C131.234 40.6963 130.64 42.0908 129.983 43.5264C129.327 44.9209 128.773 46.2539 128.322 47.5254C127.871 48.7969 127.584 49.9453 127.461 50.9707C127.379 51.9961 127.604 52.8164 128.138 53.4316C128.712 54.0059 129.655 54.3135 130.968 54.3545C132.321 54.3955 134.229 54.0469 136.689 53.3086C137.346 53.6367 137.407 54.0469 136.874 54.5391C136.341 54.9902 135.521 55.4209 134.413 55.8311C133.347 56.2412 132.157 56.5898 130.845 56.877C129.573 57.123 128.507 57.1846 127.646 57.0615C126.866 57.0615 126.21 56.9385 125.677 56.6924C125.185 56.4053 124.774 56.0361 124.446 55.585C124.159 55.1338 123.934 54.6211 123.77 54.0469C123.646 53.4727 123.585 52.8779 123.585 52.2627ZM165.482 50.9092C165.482 48.8584 166.057 46.8486 167.205 44.8799C168.395 42.9111 169.892 41.168 171.696 39.6504C173.501 38.1328 175.49 36.9229 177.664 36.0205C179.838 35.0771 181.909 34.6055 183.878 34.6055C184.657 34.6055 185.396 34.749 186.093 35.0361C186.79 35.3232 187.528 35.4668 188.308 35.4668H188.677C188.882 35.0156 189.271 34.2158 189.846 33.0674C190.461 31.9189 191.097 30.709 191.753 29.4375C192.45 28.166 193.106 26.9766 193.722 25.8691C194.337 24.7207 194.788 23.9209 195.075 23.4697C195.526 22.6904 196.142 21.7266 196.921 20.5781C197.7 19.3887 198.459 18.2402 199.197 17.1328C199.977 16.0254 200.653 15.082 201.228 14.3027C201.802 13.5234 202.13 13.1338 202.212 13.1338L204.611 15.5332C204.611 15.6152 204.447 15.9844 204.119 16.6406C203.832 17.2969 203.442 18.1582 202.95 19.2246C202.458 20.25 201.884 21.3984 201.228 22.6699C200.612 23.9414 199.977 25.2129 199.32 26.4844C198.664 27.7559 198.028 28.9863 197.413 30.1758C196.839 31.3242 196.326 32.2881 195.875 33.0674C194.604 34.9951 193.312 36.9639 191.999 38.9736C190.728 40.9424 189.702 42.7881 188.923 44.5107C188.185 46.1924 187.815 47.6689 187.815 48.9404C187.856 50.2119 188.554 51.0938 189.907 51.5859C192.368 51.1348 194.214 50.9502 195.444 51.0322C196.675 51.1143 197.434 51.3398 197.721 51.709C198.049 52.0371 198.008 52.4473 197.598 52.9395C197.188 53.3906 196.531 53.8008 195.629 54.1699C194.768 54.5391 193.763 54.7852 192.614 54.9082C191.466 55.0312 190.317 54.9082 189.169 54.5391C188.021 54.1699 186.975 53.4932 186.031 52.5088C185.088 51.5244 184.37 50.1094 183.878 48.2637L174.342 56.2002C174.342 56.2002 174.178 56.2412 173.85 56.3232C173.562 56.4053 173.193 56.4873 172.742 56.5693C172.332 56.6514 171.901 56.7334 171.45 56.8154C170.999 56.8975 170.63 56.959 170.343 57H169.974C169.03 57 168.251 56.8359 167.636 56.5078C167.062 56.1387 166.61 55.6875 166.282 55.1543C165.954 54.5801 165.729 53.9238 165.605 53.1855C165.523 52.4473 165.482 51.6885 165.482 50.9092ZM169.481 50.2324C169.481 50.4785 169.461 50.7656 169.42 51.0938C169.42 51.4219 169.44 51.7295 169.481 52.0166C169.563 52.2627 169.687 52.4883 169.851 52.6934C170.056 52.8984 170.343 53.001 170.712 53.001C171.245 53.001 171.881 52.8164 172.619 52.4473C173.398 52.0371 174.157 51.5654 174.896 51.0322C175.634 50.499 176.311 49.9658 176.926 49.4326C177.582 48.8994 178.054 48.5098 178.341 48.2637C178.628 47.9766 179.161 47.4639 179.94 46.7256C180.72 45.9463 181.52 45.126 182.34 44.2646C183.201 43.4033 184.001 42.6035 184.739 41.8652C185.478 41.127 185.99 40.5938 186.277 40.2656V40.0811C186.277 39.999 186.277 39.958 186.277 39.958C186.318 39.917 186.339 39.876 186.339 39.835C186.339 39.4658 186.216 39.1992 185.97 39.0352C185.765 38.8301 185.498 38.707 185.17 38.666C184.883 38.584 184.575 38.5635 184.247 38.6045C183.919 38.6045 183.652 38.6045 183.447 38.6045C181.971 38.6045 180.412 38.9121 178.771 39.5273C177.131 40.1426 175.613 40.9834 174.219 42.0498C172.865 43.0752 171.737 44.3057 170.835 45.7412C169.933 47.1357 169.481 48.6328 169.481 50.2324ZM197.844 53.001C198.213 50.6631 198.91 48.5098 199.936 46.541C200.961 44.5723 202.13 42.8701 203.442 41.4346C204.796 39.958 206.252 38.748 207.811 37.8047C209.369 36.8613 210.887 36.2666 212.363 36.0205C213.84 35.7334 215.193 35.7949 216.424 36.2051C217.695 36.6152 218.721 37.4355 219.5 38.666C219.5 39.6094 219.274 40.5117 218.823 41.373C218.413 42.2344 217.941 43.0957 217.408 43.957C216.916 44.8184 216.444 45.7002 215.993 46.6025C215.583 47.5049 215.378 48.4688 215.378 49.4941C215.378 50.5605 215.604 51.4219 216.055 52.0781C216.547 52.6934 217.388 53.001 218.577 53.001C219.562 53.001 220.505 52.8574 221.407 52.5703C222.351 52.2832 223.294 52.1396 224.237 52.1396C224.401 52.1396 224.668 52.1602 225.037 52.2012C225.447 52.2012 225.714 52.2012 225.837 52.2012C225.345 52.8984 224.709 53.4932 223.93 53.9854C223.15 54.4775 222.33 54.9082 221.469 55.2773C220.607 55.6055 219.705 55.8516 218.762 56.0156C217.859 56.1797 217.019 56.2617 216.239 56.2617C215.501 56.2617 214.845 56.0977 214.271 55.7695C213.696 55.4414 213.204 55.0107 212.794 54.4775C212.384 53.9443 212.056 53.3496 211.81 52.6934C211.604 51.9961 211.502 51.3193 211.502 50.6631C210.887 51.3604 210.21 52.0986 209.472 52.8779C208.774 53.6162 208.016 54.293 207.195 54.9082C206.416 55.5234 205.555 56.0361 204.611 56.4463C203.709 56.8564 202.766 57.0615 201.781 57.0615C200.715 57.0615 199.792 56.6719 199.013 55.8926C198.233 55.0723 197.844 54.1084 197.844 53.001ZM201.904 51.0938C201.904 51.4219 201.904 51.791 201.904 52.2012C201.945 52.6113 202.212 52.8779 202.704 53.001C203.729 52.7549 204.898 52.2217 206.211 51.4014C207.523 50.54 208.754 49.5557 209.902 48.4482C211.051 47.2998 212.015 46.0898 212.794 44.8184C213.573 43.5059 213.963 42.2549 213.963 41.0654C213.963 40.9834 213.942 40.8604 213.901 40.6963C213.901 40.4912 213.901 40.3477 213.901 40.2656C212.507 40.2656 211.092 40.5527 209.656 41.127C208.221 41.7012 206.929 42.501 205.78 43.5264C204.632 44.5107 203.688 45.6592 202.95 46.9717C202.253 48.2842 201.904 49.6582 201.904 51.0938ZM223.622 53.001C223.622 52.4268 223.684 51.9346 223.807 51.5244C223.93 51.0732 224.155 50.499 224.483 49.8018C224.771 49.3916 225.283 48.6123 226.021 47.4639C226.801 46.3154 227.601 45.1055 228.421 43.834C229.282 42.5625 230.082 41.373 230.82 40.2656C231.6 39.1172 232.133 38.3174 232.42 37.8662C232.789 37.333 233.076 37.0459 233.281 37.0049C233.486 36.9639 233.876 36.9434 234.45 36.9434C234.819 36.9434 235.209 36.9639 235.619 37.0049C236.07 37.0459 236.357 37.333 236.48 37.8662C235.906 39.2607 235.127 40.5938 234.143 41.8652C233.199 43.0957 232.256 44.3262 231.312 45.5566C230.41 46.7871 229.61 48.0586 228.913 49.3711C228.216 50.6426 227.867 52.0166 227.867 53.4932C228.031 53.4932 228.277 53.5137 228.605 53.5547C228.975 53.5957 229.364 53.6367 229.774 53.6777C230.185 53.7188 230.554 53.7598 230.882 53.8008C231.251 53.8418 231.518 53.8418 231.682 53.8008C231.928 53.7598 232.338 53.6777 232.912 53.5547C233.527 53.3906 234.163 53.2266 234.819 53.0625C235.517 52.8984 236.173 52.7344 236.788 52.5703C237.403 52.4062 237.834 52.2832 238.08 52.2012C238.08 52.2832 238.08 52.4268 238.08 52.6318C238.121 52.7959 238.142 52.9189 238.142 53.001C238.142 53.8213 237.752 54.498 236.973 55.0312C236.234 55.5645 235.353 55.9951 234.327 56.3232C233.343 56.6104 232.317 56.8154 231.251 56.9385C230.226 57.0205 229.426 57.0615 228.852 57.0615C228.236 57.0615 227.601 57 226.944 56.877C226.329 56.7129 225.775 56.4668 225.283 56.1387C224.791 55.8105 224.381 55.4004 224.053 54.9082C223.766 54.375 223.622 53.7393 223.622 53.001ZM241.525 16.9482C242.059 16.9482 242.551 16.9688 243.002 17.0098C243.453 17.0508 243.843 17.1533 244.171 17.3174C244.499 17.4814 244.766 17.7275 244.971 18.0557C245.176 18.3838 245.278 18.835 245.278 19.4092C245.278 19.6553 245.278 19.9219 245.278 20.209C245.278 20.4961 245.237 20.7832 245.155 21.0703C245.114 21.3164 245.012 21.542 244.848 21.7471C244.684 21.9111 244.417 21.9932 244.048 21.9932C243.474 21.9932 243.002 21.7881 242.633 21.3779C242.305 20.9678 242.059 20.4961 241.895 19.9629C241.73 19.3887 241.628 18.8145 241.587 18.2402C241.546 17.666 241.525 17.2354 241.525 16.9482ZM238.265 51.4014C238.265 51.1143 238.285 50.6836 238.326 50.1094C238.408 49.4941 238.49 48.8994 238.572 48.3252C238.654 47.751 238.736 47.2383 238.818 46.7871C238.9 46.2949 238.982 45.9873 239.064 45.8643L250.262 23.4697C250.426 23.1416 250.733 22.6904 251.185 22.1162C251.677 21.501 252.189 20.8857 252.723 20.2705C253.297 19.6143 253.851 19.0195 254.384 18.4863C254.958 17.9121 255.43 17.4609 255.799 17.1328C256.086 17.2148 256.291 17.3584 256.414 17.5635C256.537 17.7686 256.619 18.0146 256.66 18.3018C256.701 18.5479 256.701 18.7939 256.66 19.04C256.66 19.2861 256.66 19.4912 256.66 19.6553C256.66 19.8604 256.66 20.1475 256.66 20.5166C256.66 20.8857 256.64 21.0703 256.599 21.0703C256.188 22.1777 255.553 23.4902 254.691 25.0078C253.83 26.5254 252.866 28.1455 251.8 29.8682C250.733 31.5908 249.626 33.3955 248.478 35.2822C247.37 37.1279 246.345 38.9736 245.401 40.8193C244.499 42.624 243.74 44.3672 243.125 46.0488C242.551 47.7305 242.264 49.2686 242.264 50.6631C242.264 51.4014 242.469 51.9961 242.879 52.4473C243.33 52.8574 243.802 53.2266 244.294 53.5547C244.786 53.8828 245.237 54.2109 245.647 54.5391C246.099 54.8672 246.324 55.3184 246.324 55.8926C246.324 56.2617 246.16 56.5488 245.832 56.7539C245.504 56.918 245.114 57 244.663 57C242.94 57 241.443 56.5283 240.172 55.585C238.9 54.6006 238.265 53.2061 238.265 51.4014ZM250.262 75.5801C251.574 73.4473 253.092 71.54 254.814 69.8584C256.537 68.2178 258.301 66.6592 260.105 65.1826C261.951 63.7061 263.776 62.2705 265.581 60.876C267.386 59.4814 269.047 57.9844 270.564 56.3848C272.123 54.7852 273.456 53.0215 274.563 51.0938C275.671 49.125 276.43 46.8486 276.84 44.2646C276.84 44.1826 276.819 44.0596 276.778 43.8955C276.778 43.6904 276.778 43.5469 276.778 43.4648C275.835 44.5723 274.687 45.8232 273.333 47.2178C272.021 48.6123 270.585 49.9248 269.026 51.1553C267.509 52.3857 265.909 53.4111 264.228 54.2314C262.546 55.0518 260.905 55.4619 259.306 55.4619C258.896 55.4619 258.362 55.4414 257.706 55.4004C257.091 55.3184 256.476 55.1748 255.86 54.9697C255.245 54.7646 254.712 54.4775 254.261 54.1084C253.81 53.7393 253.584 53.2471 253.584 52.6318C253.584 52.0986 253.728 51.2783 254.015 50.1709C254.302 49.0635 254.691 47.833 255.184 46.4795C255.676 45.126 256.229 43.752 256.845 42.3574C257.46 40.9629 258.116 39.6914 258.813 38.543C259.511 37.3945 260.188 36.4512 260.844 35.7129C261.541 34.9746 262.177 34.6055 262.751 34.6055C263.325 34.6055 263.817 34.7285 264.228 34.9746C264.638 35.2207 264.843 35.6309 264.843 36.2051C264.843 37.2305 264.474 38.2559 263.735 39.2812C262.997 40.3066 262.197 41.4141 261.336 42.6035C260.475 43.752 259.675 45.0029 258.937 46.3564C258.198 47.71 257.829 49.248 257.829 50.9707C260.536 50.9707 262.977 50.417 265.15 49.3096C267.324 48.1611 269.293 46.7461 271.057 45.0645C272.82 43.3828 274.379 41.5576 275.732 39.5889C277.086 37.6201 278.275 35.7949 279.301 34.1133C280.367 32.4316 281.27 31.0371 282.008 29.9297C282.787 28.7812 283.443 28.207 283.977 28.207C284.756 28.207 285.207 28.4531 285.33 28.9453C285.494 29.3965 285.576 29.9707 285.576 30.668C285.207 31.9395 284.694 33.4365 284.038 35.1592C283.382 36.8408 282.705 38.625 282.008 40.5117C281.352 42.3574 280.736 44.2031 280.162 46.0488C279.629 47.8945 279.28 49.5762 279.116 51.0938C279.116 51.1348 279.116 51.1963 279.116 51.2783C279.157 51.3604 279.178 51.4219 279.178 51.4629C279.916 51.2168 280.613 50.7861 281.27 50.1709C281.926 49.5557 282.562 48.9404 283.177 48.3252C283.833 47.6689 284.489 47.0947 285.146 46.6025C285.802 46.0693 286.479 45.8027 287.176 45.8027C287.217 45.8027 287.36 46.0898 287.606 46.6641C287.894 47.2383 287.894 47.9355 287.606 48.7559C287.237 49.043 286.561 49.5352 285.576 50.2324C284.633 50.9297 283.628 51.668 282.562 52.4473C281.495 53.1855 280.49 53.9238 279.547 54.6621C278.604 55.3594 277.947 55.8926 277.578 56.2617C277.004 56.8359 276.409 57.6562 275.794 58.7227C275.179 59.7891 274.563 60.9785 273.948 62.291C273.333 63.6445 272.718 65.0596 272.103 66.5361C271.528 68.0127 270.954 69.4482 270.38 70.8428C269.806 72.2783 269.231 73.5908 268.657 74.7803C268.124 76.0107 267.632 77.0156 267.181 77.7949C266.976 78.123 266.545 78.7588 265.889 79.7021C265.273 80.6865 264.576 81.7324 263.797 82.8398C263.059 83.9473 262.32 84.9932 261.582 85.9775C260.885 87.0029 260.352 87.7207 259.982 88.1309C259.818 88.3359 259.367 88.8076 258.629 89.5459C257.891 90.3252 257.05 91.166 256.106 92.0684C255.204 93.0117 254.302 93.9346 253.399 94.8369C252.456 95.7393 251.738 96.416 251.246 96.8672C250.754 97.1543 250.098 97.5029 249.277 97.9131C248.457 98.3643 247.616 98.7334 246.755 99.0205C245.853 99.3076 244.991 99.4922 244.171 99.5742C243.31 99.6562 242.612 99.4717 242.079 99.0205C241.546 98.6104 241.238 97.8926 241.156 96.8672C241.033 95.8828 241.259 94.4678 241.833 92.6221C242.366 90.8174 243.31 88.5205 244.663 85.7314C246.017 82.9424 247.883 79.5586 250.262 75.5801ZM269.58 62.3525C269.498 62.3525 269.354 62.373 269.149 62.4141C268.985 62.4961 268.862 62.5576 268.78 62.5986C268.698 62.6807 268.514 62.8242 268.227 63.0293C267.939 63.2344 267.611 63.46 267.242 63.7061C266.914 63.9521 266.586 64.1982 266.258 64.4443C265.971 64.6904 265.766 64.875 265.643 64.998C264.494 65.8184 263.182 66.9668 261.705 68.4434C260.229 69.9609 258.69 71.6221 257.091 73.4268C255.532 75.2725 253.994 77.2002 252.477 79.21C250.959 81.2607 249.605 83.209 248.416 85.0547C247.186 86.9414 246.201 88.6641 245.463 90.2227C244.725 91.7812 244.335 93.0322 244.294 93.9756C244.253 94.9189 244.643 95.4727 245.463 95.6367C246.283 95.8008 247.678 95.4111 249.646 94.4678C250.057 94.0986 250.651 93.5449 251.431 92.8066C252.169 92.1094 252.907 91.3711 253.646 90.5918C254.425 89.8535 255.122 89.1562 255.737 88.5C256.353 87.8848 256.722 87.4951 256.845 87.3311C257.05 87.0439 257.378 86.5928 257.829 85.9775C258.28 85.3623 258.772 84.665 259.306 83.8857C259.839 83.1064 260.393 82.2861 260.967 81.4248C261.541 80.5635 262.074 79.7227 262.566 78.9023C263.1 78.123 263.551 77.4258 263.92 76.8105C264.33 76.1953 264.617 75.7236 264.781 75.3955C265.15 74.7393 265.602 73.7959 266.135 72.5654C266.709 71.376 267.242 70.125 267.734 68.8125C268.227 67.541 268.657 66.3105 269.026 65.1211C269.396 63.9316 269.58 63.0088 269.58 62.3525ZM318.245 51.4014C318.245 50.8682 318.368 50.2734 318.614 49.6172C318.901 48.9199 319.332 48.4688 319.906 48.2637C319.988 48.2227 320.091 48.2021 320.214 48.2021C320.378 48.1611 320.521 48.1201 320.645 48.0791C320.809 48.0381 320.952 48.0176 321.075 48.0176V51.4014C321.321 51.1553 321.69 50.7041 322.183 50.0479C322.716 49.3916 323.249 48.6943 323.782 47.9561C324.356 47.1768 324.869 46.4385 325.32 45.7412C325.812 45.0439 326.141 44.5312 326.305 44.2031L340.64 16.2715C340.64 16.2715 340.742 16.1484 340.947 15.9023C341.193 15.6562 341.46 15.4922 341.747 15.4102C342.075 15.2871 342.424 15.3281 342.793 15.5332C343.162 15.7383 343.511 16.2715 343.839 17.1328L335.103 34.7285V35.4668C336.251 35.6309 337.317 35.877 338.302 36.2051C339.286 36.4922 340.127 36.9229 340.824 37.4971C341.562 38.0713 342.137 38.7891 342.547 39.6504C342.957 40.4707 343.162 41.4756 343.162 42.665C343.162 44.6748 342.629 46.5615 341.562 48.3252C340.537 50.0479 339.204 51.5654 337.563 52.8779C335.923 54.1494 334.098 55.1748 332.088 55.9541C330.119 56.6924 328.212 57.0615 326.366 57.0615C325.546 57.0615 324.664 56.959 323.721 56.7539C322.777 56.5078 321.896 56.1592 321.075 55.708C320.296 55.2158 319.619 54.6211 319.045 53.9238C318.512 53.1855 318.245 52.3447 318.245 51.4014ZM335.779 39.3428C335.205 39.3428 334.569 39.6094 333.872 40.1426C333.216 40.6758 332.56 41.373 331.903 42.2344C331.247 43.0547 330.611 43.998 329.996 45.0645C329.381 46.0898 328.827 47.1152 328.335 48.1406C327.884 49.166 327.515 50.1299 327.228 51.0322C326.94 51.9346 326.797 52.6523 326.797 53.1855C327.945 53.1855 329.237 52.9189 330.673 52.3857C332.108 51.8525 333.441 51.1553 334.672 50.2939C335.943 49.3916 336.989 48.3662 337.81 47.2178C338.671 46.0283 339.102 44.7979 339.102 43.5264C339.102 42.4189 338.876 41.4551 338.425 40.6348C337.974 39.7734 337.092 39.3428 335.779 39.3428ZM359.712 52.2627C359.712 51.0322 359.958 49.9043 360.45 48.8789C360.983 47.8125 361.558 46.8076 362.173 45.8643C362.788 44.9209 363.342 43.9775 363.834 43.0342C364.367 42.0908 364.634 41.0859 364.634 40.0195C364.634 39.7734 364.613 39.4863 364.572 39.1582C364.572 38.7891 364.531 38.4404 364.449 38.1123C364.408 37.7842 364.285 37.5176 364.08 37.3125C363.916 37.0664 363.69 36.9434 363.403 36.9434C363.362 36.9434 363.28 36.9639 363.157 37.0049C363.075 37.0049 363.034 37.0254 363.034 37.0664C362.46 37.8457 361.763 38.7275 360.942 39.7119C360.163 40.6553 359.322 41.5986 358.42 42.542C357.518 43.4854 356.636 44.3877 355.774 45.249C354.913 46.1104 354.134 46.8281 353.437 47.4023C352.944 47.8535 352.268 48.4688 351.406 49.248C350.586 50.0273 349.745 50.8066 348.884 51.5859C348.063 52.3242 347.325 52.9805 346.669 53.5547C346.054 54.1289 345.705 54.416 345.623 54.416L342.793 52.0166C343.162 52.0166 343.531 51.9346 343.9 51.7705C344.229 51.6064 344.557 51.4219 344.885 51.2168C347.346 49.5762 349.561 47.6895 351.529 45.5566C353.539 43.4238 355.508 41.127 357.436 38.666C357.518 38.543 357.723 38.1943 358.051 37.6201C358.42 37.0049 358.81 36.3281 359.22 35.5898C359.63 34.8105 360.04 34.0518 360.45 33.3135C360.86 32.5342 361.168 31.9189 361.373 31.4678C361.619 30.9346 361.763 30.5039 361.804 30.1758C361.886 29.8477 361.947 29.6016 361.988 29.4375C362.07 29.2324 362.193 29.0889 362.357 29.0068C362.521 28.9248 362.87 28.8838 363.403 28.8838C363.485 28.8838 363.67 28.9043 363.957 28.9453C364.285 28.9863 364.49 29.0273 364.572 29.0684C365.105 30.1758 365.577 31.1602 365.987 32.0215C366.397 32.8828 366.746 33.7031 367.033 34.4824C367.32 35.2207 367.525 35.9795 367.648 36.7588C367.812 37.5381 367.895 38.3994 367.895 39.3428C367.361 40.6963 366.767 42.0908 366.11 43.5264C365.454 44.9209 364.9 46.2539 364.449 47.5254C363.998 48.7969 363.711 49.9453 363.588 50.9707C363.506 51.9961 363.731 52.8164 364.265 53.4316C364.839 54.0059 365.782 54.3135 367.095 54.3545C368.448 54.3955 370.355 54.0469 372.816 53.3086C373.473 53.6367 373.534 54.0469 373.001 54.5391C372.468 54.9902 371.647 55.4209 370.54 55.8311C369.474 56.2412 368.284 56.5898 366.972 56.877C365.7 57.123 364.634 57.1846 363.772 57.0615C362.993 57.0615 362.337 56.9385 361.804 56.6924C361.312 56.4053 360.901 56.0361 360.573 55.585C360.286 55.1338 360.061 54.6211 359.896 54.0469C359.773 53.4727 359.712 52.8779 359.712 52.2627ZM370.355 53.8008C369.658 52.2422 369.351 50.7246 369.433 49.248C369.515 47.7305 369.843 46.3154 370.417 45.0029C371.032 43.6494 371.812 42.4395 372.755 41.373C373.739 40.2656 374.785 39.3223 375.893 38.543C377 37.7227 378.107 37.1074 379.215 36.6973C380.363 36.2871 381.368 36.123 382.229 36.2051C383.091 36.2461 383.768 36.5537 384.26 37.1279C384.752 37.7021 384.916 38.584 384.752 39.7734C384.752 41.373 384.239 42.7676 383.214 43.957C382.229 45.1465 381.122 46.2129 379.892 47.1562C378.702 48.0996 377.595 48.9609 376.569 49.7402C375.585 50.4785 375.093 51.1758 375.093 51.832C375.093 52.2012 375.298 52.4883 375.708 52.6934C376.159 52.8984 376.672 53.0625 377.246 53.1855C377.82 53.2676 378.395 53.3291 378.969 53.3701C379.543 53.4111 379.953 53.4521 380.199 53.4932C384.055 52.6729 386.946 52.1807 388.874 52.0166C390.802 51.8115 392.012 51.832 392.504 52.0781C392.996 52.2832 392.894 52.6318 392.196 53.124C391.54 53.5752 390.515 54.0674 389.12 54.6006C387.726 55.0928 386.105 55.5439 384.26 55.9541C382.414 56.3643 380.589 56.6104 378.784 56.6924C376.979 56.7334 375.298 56.5488 373.739 56.1387C372.222 55.7285 371.094 54.9492 370.355 53.8008ZM381.122 39.7734C380.302 39.7734 379.522 39.999 378.784 40.4502C378.046 40.9014 377.369 41.4756 376.754 42.1729C376.18 42.8291 375.688 43.5674 375.277 44.3877C374.867 45.167 374.56 45.9053 374.354 46.6025C374.437 46.6436 374.498 46.6641 374.539 46.6641H374.724C375.298 46.6641 375.954 46.418 376.692 45.9258C377.431 45.4336 378.128 44.8389 378.784 44.1416C379.44 43.4033 379.994 42.6445 380.445 41.8652C380.896 41.0859 381.122 40.3887 381.122 39.7734ZM391.273 53.001C391.438 51.3193 391.889 49.7812 392.627 48.3867C393.406 46.9512 394.309 45.5977 395.334 44.3262C396.4 43.0137 397.487 41.7832 398.595 40.6348C399.743 39.4453 400.769 38.2559 401.671 37.0664C402.368 37.0664 402.819 37.2305 403.024 37.5586C403.271 37.8457 403.394 38.2148 403.394 38.666C403.065 39.0352 402.553 39.7119 401.855 40.6963C401.158 41.6396 400.44 42.665 399.702 43.7725C399.005 44.8799 398.369 45.9258 397.795 46.9102C397.262 47.8945 396.954 48.5918 396.872 49.002C396.544 50.2324 396.544 51.0117 396.872 51.3398C397.241 51.627 397.815 51.627 398.595 51.3398C399.415 51.0117 400.379 50.458 401.486 49.6787C402.594 48.8584 403.722 47.9561 404.87 46.9717C406.06 45.9873 407.208 44.9619 408.315 43.8955C409.423 42.8291 410.387 41.8857 411.207 41.0654H413.914C413.914 41.7627 413.812 42.4395 413.606 43.0957C413.401 43.7109 413.176 44.3262 412.93 44.9414C412.684 45.5566 412.458 46.1719 412.253 46.7871C412.048 47.4023 411.945 48.0381 411.945 48.6943C411.945 49.6377 412.232 50.2119 412.807 50.417C413.422 50.6221 414.119 50.7246 414.898 50.7246C415.965 50.7246 417.072 50.5195 418.221 50.1094C419.41 49.6582 420.497 49.0635 421.481 48.3252C422.466 47.5459 423.266 46.6641 423.881 45.6797C424.537 44.6543 424.865 43.5469 424.865 42.3574C424.865 41.291 424.701 40.3271 424.373 39.4658C424.086 38.5635 423.942 37.5791 423.942 36.5127C423.942 35.2412 424.64 34.6055 426.034 34.6055C426.649 34.6055 427.183 34.8721 427.634 35.4053C428.085 35.9385 428.454 36.5742 428.741 37.3125C429.069 38.0508 429.295 38.8096 429.418 39.5889C429.582 40.3682 429.664 41.0039 429.664 41.4961C429.664 43.6289 429.151 45.5156 428.126 47.1562C427.101 48.7969 425.788 50.1709 424.188 51.2783C422.589 52.3857 420.805 53.2266 418.836 53.8008C416.908 54.375 415.021 54.6621 413.176 54.6621C411.617 54.6621 410.387 54.1084 409.484 53.001C408.582 51.8525 408.11 50.5195 408.069 49.002C406.88 49.3711 405.793 50.0068 404.809 50.9092C403.824 51.7705 402.84 52.6729 401.855 53.6162C400.871 54.5186 399.846 55.3184 398.779 56.0156C397.713 56.7129 396.544 57.0615 395.272 57.0615C394.944 57.0615 394.534 56.918 394.042 56.6309C393.591 56.3438 393.14 55.9951 392.688 55.585C392.278 55.1748 391.93 54.7441 391.643 54.293C391.355 53.8008 391.232 53.3701 391.273 53.001ZM463.01 53.001C463.01 52.4268 463.071 51.9346 463.194 51.5244C463.317 51.0732 463.543 50.499 463.871 49.8018C464.158 49.3916 464.671 48.6123 465.409 47.4639C466.188 46.3154 466.988 45.1055 467.809 43.834C468.67 42.5625 469.47 41.373 470.208 40.2656C470.987 39.1172 471.521 38.3174 471.808 37.8662C472.177 37.333 472.464 37.0459 472.669 37.0049C472.874 36.9639 473.264 36.9434 473.838 36.9434C474.207 36.9434 474.597 36.9639 475.007 37.0049C475.458 37.0459 475.745 37.333 475.868 37.8662C475.294 39.2607 474.515 40.5938 473.53 41.8652C472.587 43.0957 471.644 44.3262 470.7 45.5566C469.798 46.7871 468.998 48.0586 468.301 49.3711C467.604 50.6426 467.255 52.0166 467.255 53.4932C467.419 53.4932 467.665 53.5137 467.993 53.5547C468.362 53.5957 468.752 53.6367 469.162 53.6777C469.572 53.7188 469.941 53.7598 470.27 53.8008C470.639 53.8418 470.905 53.8418 471.069 53.8008C471.315 53.7598 471.726 53.6777 472.3 53.5547C472.915 53.3906 473.551 53.2266 474.207 53.0625C474.904 52.8984 475.561 52.7344 476.176 52.5703C476.791 52.4062 477.222 52.2832 477.468 52.2012C477.468 52.2832 477.468 52.4268 477.468 52.6318C477.509 52.7959 477.529 52.9189 477.529 53.001C477.529 53.8213 477.14 54.498 476.36 55.0312C475.622 55.5645 474.74 55.9951 473.715 56.3232C472.73 56.6104 471.705 56.8154 470.639 56.9385C469.613 57.0205 468.813 57.0615 468.239 57.0615C467.624 57.0615 466.988 57 466.332 56.877C465.717 56.7129 465.163 56.4668 464.671 56.1387C464.179 55.8105 463.769 55.4004 463.44 54.9082C463.153 54.375 463.01 53.7393 463.01 53.001ZM480.913 16.9482C481.446 16.9482 481.938 16.9688 482.39 17.0098C482.841 17.0508 483.23 17.1533 483.559 17.3174C483.887 17.4814 484.153 17.7275 484.358 18.0557C484.563 18.3838 484.666 18.835 484.666 19.4092C484.666 19.6553 484.666 19.9219 484.666 20.209C484.666 20.4961 484.625 20.7832 484.543 21.0703C484.502 21.3164 484.399 21.542 484.235 21.7471C484.071 21.9111 483.805 21.9932 483.436 21.9932C482.861 21.9932 482.39 21.7881 482.021 21.3779C481.692 20.9678 481.446 20.4961 481.282 19.9629C481.118 19.3887 481.016 18.8145 480.975 18.2402C480.934 17.666 480.913 17.2354 480.913 16.9482ZM478.821 54.2314C478.821 53.8623 478.821 53.5752 478.821 53.3701C478.821 53.165 478.842 52.9805 478.883 52.8164C478.965 52.6113 479.067 52.4062 479.19 52.2012C479.313 51.9961 479.478 51.7295 479.683 51.4014C480.011 50.8271 480.626 49.8223 481.528 48.3867C482.431 46.9512 483.395 45.4336 484.42 43.834C485.445 42.2344 486.409 40.7168 487.312 39.2812C488.255 37.8457 488.911 36.8408 489.28 36.2666C489.321 36.2256 489.424 36.2051 489.588 36.2051C489.793 36.2051 489.937 36.2051 490.019 36.2051C490.101 36.2051 490.244 36.2051 490.449 36.2051C490.654 36.2051 490.777 36.2256 490.818 36.2666C490.859 36.3076 490.941 36.4102 491.064 36.5742C491.229 36.7383 491.393 36.9229 491.557 37.1279C491.762 37.292 491.926 37.4561 492.049 37.6201C492.213 37.7842 492.336 37.8662 492.418 37.8662C492.787 37.8662 493.177 37.7432 493.587 37.4971C493.997 37.251 494.407 36.9844 494.817 36.6973C495.269 36.3691 495.72 36.082 496.171 35.8359C496.622 35.5898 497.094 35.4668 497.586 35.4668C498.119 35.4668 498.611 35.5898 499.062 35.8359C499.514 36.082 499.903 36.3896 500.231 36.7588C500.56 37.1279 500.806 37.5381 500.97 37.9893C501.175 38.4404 501.277 38.8916 501.277 39.3428C501.277 40.2861 501.134 41.1885 500.847 42.0498C500.601 42.9111 500.313 43.7725 499.985 44.6338C499.657 45.4541 499.35 46.2949 499.062 47.1562C498.816 47.9766 498.693 48.8379 498.693 49.7402C498.693 50.6426 498.796 51.2988 499.001 51.709C499.206 52.0781 499.78 52.2627 500.724 52.2627C501.831 52.2627 502.877 52.0986 503.861 51.7705C504.887 51.4424 505.933 51.2783 506.999 51.2783C506.999 52.2627 506.691 53.083 506.076 53.7393C505.502 54.3955 504.764 54.9287 503.861 55.3389C503 55.708 502.057 55.9746 501.031 56.1387C500.047 56.2617 499.145 56.3232 498.324 56.3232C496.766 56.3232 495.617 55.8926 494.879 55.0312C494.182 54.1289 493.833 52.9395 493.833 51.4629C493.833 50.4785 493.997 49.5557 494.325 48.6943C494.694 47.833 495.084 46.9922 495.494 46.1719C495.945 45.3516 496.355 44.5312 496.725 43.7109C497.094 42.8906 497.278 42.0088 497.278 41.0654C497.278 40.8193 497.237 40.4912 497.155 40.0811C497.073 39.6709 496.807 39.4658 496.355 39.4658C495.002 39.4658 493.771 39.8965 492.664 40.7578C491.598 41.6191 490.613 42.7061 489.711 44.0186C488.85 45.3311 488.05 46.7461 487.312 48.2637C486.614 49.7812 485.938 51.1963 485.281 52.5088C484.666 53.8213 484.071 54.9082 483.497 55.7695C482.923 56.6309 482.328 57.0615 481.713 57.0615C480.852 57.0615 480.154 56.7949 479.621 56.2617C479.088 55.7285 478.821 55.0518 478.821 54.2314ZM537.146 53.8008C536.448 52.2422 536.141 50.7246 536.223 49.248C536.305 47.7305 536.633 46.3154 537.207 45.0029C537.822 43.6494 538.602 42.4395 539.545 41.373C540.529 40.2656 541.575 39.3223 542.683 38.543C543.79 37.7227 544.897 37.1074 546.005 36.6973C547.153 36.2871 548.158 36.123 549.02 36.2051C549.881 36.2461 550.558 36.5537 551.05 37.1279C551.542 37.7021 551.706 38.584 551.542 39.7734C551.542 41.373 551.029 42.7676 550.004 43.957C549.02 45.1465 547.912 46.2129 546.682 47.1562C545.492 48.0996 544.385 48.9609 543.359 49.7402C542.375 50.4785 541.883 51.1758 541.883 51.832C541.883 52.2012 542.088 52.4883 542.498 52.6934C542.949 52.8984 543.462 53.0625 544.036 53.1855C544.61 53.2676 545.185 53.3291 545.759 53.3701C546.333 53.4111 546.743 53.4521 546.989 53.4932C550.845 52.6729 553.736 52.1807 555.664 52.0166C557.592 51.8115 558.802 51.832 559.294 52.0781C559.786 52.2832 559.684 52.6318 558.986 53.124C558.33 53.5752 557.305 54.0674 555.91 54.6006C554.516 55.0928 552.896 55.5439 551.05 55.9541C549.204 56.3643 547.379 56.6104 545.574 56.6924C543.77 56.7334 542.088 56.5488 540.529 56.1387C539.012 55.7285 537.884 54.9492 537.146 53.8008ZM547.912 39.7734C547.092 39.7734 546.312 39.999 545.574 40.4502C544.836 40.9014 544.159 41.4756 543.544 42.1729C542.97 42.8291 542.478 43.5674 542.067 44.3877C541.657 45.167 541.35 45.9053 541.145 46.6025C541.227 46.6436 541.288 46.6641 541.329 46.6641H541.514C542.088 46.6641 542.744 46.418 543.482 45.9258C544.221 45.4336 544.918 44.8389 545.574 44.1416C546.23 43.4033 546.784 42.6445 547.235 41.8652C547.687 41.0859 547.912 40.3887 547.912 39.7734ZM558.002 53.124C558.002 53.001 558.002 52.8369 558.002 52.6318C558.043 52.3857 558.063 52.2422 558.063 52.2012C558.187 50.9707 558.33 49.4121 558.494 47.5254C558.658 45.5977 558.822 43.752 558.986 41.9883C559.191 40.2246 559.355 38.707 559.479 37.4355C559.602 36.123 559.663 35.4668 559.663 35.4668L561.324 33.8672C562.021 34.0723 562.534 34.3594 562.862 34.7285C563.19 35.0566 563.416 35.4258 563.539 35.8359C563.662 36.2461 563.724 36.6973 563.724 37.1895C563.724 37.6816 563.724 38.1738 563.724 38.666C563.724 40.3887 563.56 42.0703 563.231 43.7109C562.944 45.3105 562.801 46.9512 562.801 48.6328C562.801 48.7148 562.801 48.9199 562.801 49.248C562.842 49.5352 562.862 49.7197 562.862 49.8018L577.997 33.8672C578.038 33.8262 578.141 33.8057 578.305 33.8057C578.51 33.8057 578.653 33.8057 578.735 33.8057C579.146 33.8057 579.535 33.8877 579.904 34.0518C580.273 34.2158 580.458 34.5645 580.458 35.0977C580.458 35.1387 580.438 35.1797 580.396 35.2207C580.396 35.2207 580.396 35.2412 580.396 35.2822V35.4668C580.191 35.7949 579.822 36.3281 579.289 37.0664C578.797 37.8047 578.243 38.6045 577.628 39.4658C577.054 40.3271 576.5 41.1475 575.967 41.9268C575.434 42.665 575.064 43.1777 574.859 43.4648C574.162 44.3262 573.342 45.3516 572.398 46.541C571.496 47.7305 570.512 48.9404 569.445 50.1709C568.42 51.3604 567.333 52.5088 566.185 53.6162C565.077 54.6826 563.97 55.5439 562.862 56.2002C562.657 56.3232 562.35 56.4873 561.939 56.6924C561.57 56.8975 561.365 57 561.324 57C560.873 57 560.442 56.877 560.032 56.6309C559.663 56.3438 559.314 55.9951 558.986 55.585C558.699 55.1748 558.453 54.7646 558.248 54.3545C558.084 53.9033 558.002 53.4932 558.002 53.124ZM582.919 53.8008C582.222 52.2422 581.914 50.7246 581.996 49.248C582.078 47.7305 582.406 46.3154 582.98 45.0029C583.596 43.6494 584.375 42.4395 585.318 41.373C586.303 40.2656 587.349 39.3223 588.456 38.543C589.563 37.7227 590.671 37.1074 591.778 36.6973C592.927 36.2871 593.932 36.123 594.793 36.2051C595.654 36.2461 596.331 36.5537 596.823 37.1279C597.315 37.7021 597.479 38.584 597.315 39.7734C597.315 41.373 596.803 42.7676 595.777 43.957C594.793 45.1465 593.686 46.2129 592.455 47.1562C591.266 48.0996 590.158 48.9609 589.133 49.7402C588.148 50.4785 587.656 51.1758 587.656 51.832C587.656 52.2012 587.861 52.4883 588.271 52.6934C588.723 52.8984 589.235 53.0625 589.81 53.1855C590.384 53.2676 590.958 53.3291 591.532 53.3701C592.106 53.4111 592.517 53.4521 592.763 53.4932C596.618 52.6729 599.51 52.1807 601.438 52.0166C603.365 51.8115 604.575 51.832 605.067 52.0781C605.56 52.2832 605.457 52.6318 604.76 53.124C604.104 53.5752 603.078 54.0674 601.684 54.6006C600.289 55.0928 598.669 55.5439 596.823 55.9541C594.978 56.3643 593.152 56.6104 591.348 56.6924C589.543 56.7334 587.861 56.5488 586.303 56.1387C584.785 55.7285 583.657 54.9492 582.919 53.8008ZM593.686 39.7734C592.865 39.7734 592.086 39.999 591.348 40.4502C590.609 40.9014 589.933 41.4756 589.317 42.1729C588.743 42.8291 588.251 43.5674 587.841 44.3877C587.431 45.167 587.123 45.9053 586.918 46.6025C587 46.6436 587.062 46.6641 587.103 46.6641H587.287C587.861 46.6641 588.518 46.418 589.256 45.9258C589.994 45.4336 590.691 44.8389 591.348 44.1416C592.004 43.4033 592.558 42.6445 593.009 41.8652C593.46 41.0859 593.686 40.3887 593.686 39.7734ZM617.311 52.2627C617.311 51.0322 617.557 49.9043 618.049 48.8789C618.582 47.8125 619.156 46.8076 619.771 45.8643C620.387 44.9209 620.94 43.9775 621.433 43.0342C621.966 42.0908 622.232 41.0859 622.232 40.0195C622.232 39.7734 622.212 39.4863 622.171 39.1582C622.171 38.7891 622.13 38.4404 622.048 38.1123C622.007 37.7842 621.884 37.5176 621.679 37.3125C621.515 37.0664 621.289 36.9434 621.002 36.9434C620.961 36.9434 620.879 36.9639 620.756 37.0049C620.674 37.0049 620.633 37.0254 620.633 37.0664C620.059 37.8457 619.361 38.7275 618.541 39.7119C617.762 40.6553 616.921 41.5986 616.019 42.542C615.116 43.4854 614.234 44.3877 613.373 45.249C612.512 46.1104 611.732 46.8281 611.035 47.4023C610.543 47.8535 609.866 48.4688 609.005 49.248C608.185 50.0273 607.344 50.8066 606.482 51.5859C605.662 52.3242 604.924 52.9805 604.268 53.5547C603.652 54.1289 603.304 54.416 603.222 54.416L600.392 52.0166C600.761 52.0166 601.13 51.9346 601.499 51.7705C601.827 51.6064 602.155 51.4219 602.483 51.2168C604.944 49.5762 607.159 47.6895 609.128 45.5566C611.138 43.4238 613.106 41.127 615.034 38.666C615.116 38.543 615.321 38.1943 615.649 37.6201C616.019 37.0049 616.408 36.3281 616.818 35.5898C617.229 34.8105 617.639 34.0518 618.049 33.3135C618.459 32.5342 618.767 31.9189 618.972 31.4678C619.218 30.9346 619.361 30.5039 619.402 30.1758C619.484 29.8477 619.546 29.6016 619.587 29.4375C619.669 29.2324 619.792 29.0889 619.956 29.0068C620.12 28.9248 620.469 28.8838 621.002 28.8838C621.084 28.8838 621.269 28.9043 621.556 28.9453C621.884 28.9863 622.089 29.0273 622.171 29.0684C622.704 30.1758 623.176 31.1602 623.586 32.0215C623.996 32.8828 624.345 33.7031 624.632 34.4824C624.919 35.2207 625.124 35.9795 625.247 36.7588C625.411 37.5381 625.493 38.3994 625.493 39.3428C624.96 40.6963 624.365 42.0908 623.709 43.5264C623.053 44.9209 622.499 46.2539 622.048 47.5254C621.597 48.7969 621.31 49.9453 621.187 50.9707C621.104 51.9961 621.33 52.8164 621.863 53.4316C622.438 54.0059 623.381 54.3135 624.693 54.3545C626.047 54.3955 627.954 54.0469 630.415 53.3086C631.071 53.6367 631.133 54.0469 630.6 54.5391C630.066 54.9902 629.246 55.4209 628.139 55.8311C627.072 56.2412 625.883 56.5898 624.57 56.877C623.299 57.123 622.232 57.1846 621.371 57.0615C620.592 57.0615 619.936 56.9385 619.402 56.6924C618.91 56.4053 618.5 56.0361 618.172 55.585C617.885 55.1338 617.659 54.6211 617.495 54.0469C617.372 53.4727 617.311 52.8779 617.311 52.2627ZM623.647 75.5801C624.96 73.4473 626.478 71.54 628.2 69.8584C629.923 68.2178 631.687 66.6592 633.491 65.1826C635.337 63.7061 637.162 62.2705 638.967 60.876C640.771 59.4814 642.433 57.9844 643.95 56.3848C645.509 54.7852 646.842 53.0215 647.949 51.0938C649.057 49.125 649.815 46.8486 650.226 44.2646C650.226 44.1826 650.205 44.0596 650.164 43.8955C650.164 43.6904 650.164 43.5469 650.164 43.4648C649.221 44.5723 648.072 45.8232 646.719 47.2178C645.406 48.6123 643.971 49.9248 642.412 51.1553C640.895 52.3857 639.295 53.4111 637.613 54.2314C635.932 55.0518 634.291 55.4619 632.691 55.4619C632.281 55.4619 631.748 55.4414 631.092 55.4004C630.477 55.3184 629.861 55.1748 629.246 54.9697C628.631 54.7646 628.098 54.4775 627.646 54.1084C627.195 53.7393 626.97 53.2471 626.97 52.6318C626.97 52.0986 627.113 51.2783 627.4 50.1709C627.688 49.0635 628.077 47.833 628.569 46.4795C629.062 45.126 629.615 43.752 630.23 42.3574C630.846 40.9629 631.502 39.6914 632.199 38.543C632.896 37.3945 633.573 36.4512 634.229 35.7129C634.927 34.9746 635.562 34.6055 636.137 34.6055C636.711 34.6055 637.203 34.7285 637.613 34.9746C638.023 35.2207 638.229 35.6309 638.229 36.2051C638.229 37.2305 637.859 38.2559 637.121 39.2812C636.383 40.3066 635.583 41.4141 634.722 42.6035C633.86 43.752 633.061 45.0029 632.322 46.3564C631.584 47.71 631.215 49.248 631.215 50.9707C633.922 50.9707 636.362 50.417 638.536 49.3096C640.71 48.1611 642.679 46.7461 644.442 45.0645C646.206 43.3828 647.765 41.5576 649.118 39.5889C650.472 37.6201 651.661 35.7949 652.687 34.1133C653.753 32.4316 654.655 31.0371 655.394 29.9297C656.173 28.7812 656.829 28.207 657.362 28.207C658.142 28.207 658.593 28.4531 658.716 28.9453C658.88 29.3965 658.962 29.9707 658.962 30.668C658.593 31.9395 658.08 33.4365 657.424 35.1592C656.768 36.8408 656.091 38.625 655.394 40.5117C654.737 42.3574 654.122 44.2031 653.548 46.0488C653.015 47.8945 652.666 49.5762 652.502 51.0938C652.502 51.1348 652.502 51.1963 652.502 51.2783C652.543 51.3604 652.563 51.4219 652.563 51.4629C653.302 51.2168 653.999 50.7861 654.655 50.1709C655.312 49.5557 655.947 48.9404 656.562 48.3252C657.219 47.6689 657.875 47.0947 658.531 46.6025C659.188 46.0693 659.864 45.8027 660.562 45.8027C660.603 45.8027 660.746 46.0898 660.992 46.6641C661.279 47.2383 661.279 47.9355 660.992 48.7559C660.623 49.043 659.946 49.5352 658.962 50.2324C658.019 50.9297 657.014 51.668 655.947 52.4473C654.881 53.1855 653.876 53.9238 652.933 54.6621C651.989 55.3594 651.333 55.8926 650.964 56.2617C650.39 56.8359 649.795 57.6562 649.18 58.7227C648.564 59.7891 647.949 60.9785 647.334 62.291C646.719 63.6445 646.104 65.0596 645.488 66.5361C644.914 68.0127 644.34 69.4482 643.766 70.8428C643.191 72.2783 642.617 73.5908 642.043 74.7803C641.51 76.0107 641.018 77.0156 640.566 77.7949C640.361 78.123 639.931 78.7588 639.274 79.7021C638.659 80.6865 637.962 81.7324 637.183 82.8398C636.444 83.9473 635.706 84.9932 634.968 85.9775C634.271 87.0029 633.737 87.7207 633.368 88.1309C633.204 88.3359 632.753 88.8076 632.015 89.5459C631.276 90.3252 630.436 91.166 629.492 92.0684C628.59 93.0117 627.688 93.9346 626.785 94.8369C625.842 95.7393 625.124 96.416 624.632 96.8672C624.14 97.1543 623.483 97.5029 622.663 97.9131C621.843 98.3643 621.002 98.7334 620.141 99.0205C619.238 99.3076 618.377 99.4922 617.557 99.5742C616.695 99.6562 615.998 99.4717 615.465 99.0205C614.932 98.6104 614.624 97.8926 614.542 96.8672C614.419 95.8828 614.645 94.4678 615.219 92.6221C615.752 90.8174 616.695 88.5205 618.049 85.7314C619.402 82.9424 621.269 79.5586 623.647 75.5801ZM642.966 62.3525C642.884 62.3525 642.74 62.373 642.535 62.4141C642.371 62.4961 642.248 62.5576 642.166 62.5986C642.084 62.6807 641.899 62.8242 641.612 63.0293C641.325 63.2344 640.997 63.46 640.628 63.7061C640.3 63.9521 639.972 64.1982 639.644 64.4443C639.356 64.6904 639.151 64.875 639.028 64.998C637.88 65.8184 636.567 66.9668 635.091 68.4434C633.614 69.9609 632.076 71.6221 630.477 73.4268C628.918 75.2725 627.38 77.2002 625.862 79.21C624.345 81.2607 622.991 83.209 621.802 85.0547C620.571 86.9414 619.587 88.6641 618.849 90.2227C618.11 91.7812 617.721 93.0322 617.68 93.9756C617.639 94.9189 618.028 95.4727 618.849 95.6367C619.669 95.8008 621.063 95.4111 623.032 94.4678C623.442 94.0986 624.037 93.5449 624.816 92.8066C625.555 92.1094 626.293 91.3711 627.031 90.5918C627.811 89.8535 628.508 89.1562 629.123 88.5C629.738 87.8848 630.107 87.4951 630.23 87.3311C630.436 87.0439 630.764 86.5928 631.215 85.9775C631.666 85.3623 632.158 84.665 632.691 83.8857C633.225 83.1064 633.778 82.2861 634.353 81.4248C634.927 80.5635 635.46 79.7227 635.952 78.9023C636.485 78.123 636.937 77.4258 637.306 76.8105C637.716 76.1953 638.003 75.7236 638.167 75.3955C638.536 74.7393 638.987 73.7959 639.521 72.5654C640.095 71.376 640.628 70.125 641.12 68.8125C641.612 67.541 642.043 66.3105 642.412 65.1211C642.781 63.9316 642.966 63.0088 642.966 62.3525ZM713.103 57.0615C712.077 57.2256 711.134 57.0615 710.272 56.5693C709.452 56.0361 708.796 55.3594 708.304 54.5391C707.812 53.6777 707.524 52.7549 707.442 51.7705C707.36 50.7451 707.565 49.8223 708.058 49.002C709.862 46.6641 711.093 44.8184 711.749 43.4648C712.405 42.0703 712.631 41.1064 712.426 40.5732C712.262 39.999 711.749 39.7734 710.888 39.8965C710.067 39.9785 709.062 40.3477 707.873 41.0039C706.684 41.6191 705.392 42.4395 703.997 43.4648C702.644 44.4902 701.372 45.6182 700.183 46.8486C698.993 48.0791 697.947 49.3711 697.045 50.7246C696.184 52.0371 695.63 53.3291 695.384 54.6006C694.974 54.8467 694.625 55.0518 694.338 55.2158C694.051 55.3389 693.723 55.4004 693.354 55.4004C692.738 55.4004 692.369 55.1953 692.246 54.7852C692.123 54.375 692.062 53.9443 692.062 53.4932C692.062 52.4678 692.369 51.4219 692.984 50.3555C693.641 49.248 694.379 48.2227 695.199 47.2793C696.061 46.2949 696.881 45.4131 697.66 44.6338C698.439 43.8135 698.993 43.1572 699.321 42.665C700.347 40.9834 701.372 39.1787 702.397 37.251C703.423 35.2822 704.448 33.293 705.474 31.2832C706.499 29.2324 707.545 27.2227 708.611 25.2539C709.719 23.2441 710.867 21.3369 712.057 19.5322C712.262 19.2041 712.426 18.9785 712.549 18.8555C712.713 18.7324 712.938 18.6709 713.226 18.6709C713.554 18.6709 713.8 18.7324 713.964 18.8555C714.128 18.9785 714.292 19.2041 714.456 19.5322C714.456 19.6963 714.415 19.9629 714.333 20.332C714.292 20.7012 714.23 21.1113 714.148 21.5625C714.107 21.9727 714.025 22.3623 713.902 22.7314C713.82 23.1006 713.759 23.3467 713.718 23.4697C713.472 23.9619 713.062 24.8232 712.487 26.0537C711.913 27.2842 711.277 28.5967 710.58 29.9912C709.924 31.3857 709.288 32.7598 708.673 34.1133C708.058 35.4258 707.606 36.4102 707.319 37.0664C707.935 36.6562 708.488 36.3486 708.98 36.1436C709.473 35.8975 709.944 35.7334 710.396 35.6514C710.888 35.5283 711.38 35.4668 711.872 35.4668C712.405 35.4258 712.979 35.4053 713.595 35.4053C715.071 35.7744 716.035 36.3281 716.486 37.0664C716.979 37.8047 717.122 38.666 716.917 39.6504C716.753 40.5938 716.363 41.6396 715.748 42.7881C715.133 43.9365 714.477 45.1055 713.779 46.2949C713.123 47.4434 712.528 48.5713 711.995 49.6787C711.462 50.7451 711.216 51.7295 711.257 52.6318C711.257 53.001 711.339 53.2676 711.503 53.4316C711.667 53.5957 711.872 53.7188 712.118 53.8008C712.364 53.8828 712.631 53.9238 712.918 53.9238C713.205 53.9238 713.472 53.9238 713.718 53.9238C714.579 53.9238 715.399 53.8008 716.179 53.5547C716.999 53.2676 717.799 52.96 718.578 52.6318C719.357 52.3037 720.137 52.0166 720.916 51.7705C721.736 51.4834 722.577 51.3398 723.438 51.3398C723.438 52.1191 723.049 52.8574 722.27 53.5547C721.49 54.252 720.547 54.8672 719.439 55.4004C718.373 55.8926 717.245 56.3027 716.056 56.6309C714.866 56.918 713.882 57.0615 713.103 57.0615ZM721.531 53.9238C721.531 53.3086 721.716 52.4473 722.085 51.3398C722.454 50.1914 722.926 48.9609 723.5 47.6484C724.115 46.3359 724.792 45.0029 725.53 43.6494C726.31 42.2959 727.089 41.0654 727.868 39.958C728.647 38.8506 729.386 37.9482 730.083 37.251C730.78 36.5537 731.396 36.2051 731.929 36.2051C733.077 36.2051 733.651 36.7588 733.651 37.8662C733.651 38.3584 733.549 38.7686 733.344 39.0967C733.18 39.4248 732.975 39.7324 732.729 40.0195C732.482 40.3066 732.216 40.5938 731.929 40.8809C731.642 41.127 731.396 41.4346 731.19 41.8037C730.821 42.4189 730.37 43.2598 729.837 44.3262C729.304 45.3926 728.771 46.4385 728.237 47.4639C727.745 48.4482 727.314 49.3301 726.945 50.1094C726.576 50.8887 726.392 51.3193 726.392 51.4014V52.2012C727.991 51.9141 729.529 51.2373 731.006 50.1709C732.482 49.0635 733.877 47.7715 735.189 46.2949C736.543 44.8184 737.814 43.2803 739.004 41.6807C740.234 40.04 741.383 38.543 742.449 37.1895C743.516 35.7949 744.521 34.6465 745.464 33.7441C746.407 32.8418 747.289 32.3906 748.109 32.3906C748.109 33.9082 747.802 35.2822 747.187 36.5127C746.571 37.7432 745.895 38.9531 745.156 40.1426C744.459 41.332 743.803 42.5625 743.188 43.834C742.572 45.0645 742.265 46.459 742.265 48.0176C742.265 48.6738 742.654 49.2686 743.434 49.8018C744.254 50.2939 745.177 50.7246 746.202 51.0938C747.269 51.4219 748.294 51.6885 749.278 51.8936C750.263 52.0986 750.939 52.2217 751.309 52.2627V53.8623C750.365 53.9033 749.196 53.9238 747.802 53.9238C746.407 53.8828 745.013 53.7188 743.618 53.4316C742.224 53.1445 740.952 52.6729 739.804 52.0166C738.696 51.3193 737.958 50.3145 737.589 49.002C736.522 49.6992 735.497 50.5195 734.513 51.4629C733.528 52.4062 732.503 53.2881 731.437 54.1084C730.411 54.9287 729.324 55.626 728.176 56.2002C727.027 56.7744 725.776 57.0615 724.423 57.0615C723.603 57.0615 722.905 56.7129 722.331 56.0156C721.798 55.3184 721.531 54.6211 721.531 53.9238ZM751.309 53.8008C750.611 52.2422 750.304 50.7246 750.386 49.248C750.468 47.7305 750.796 46.3154 751.37 45.0029C751.985 43.6494 752.765 42.4395 753.708 41.373C754.692 40.2656 755.738 39.3223 756.846 38.543C757.953 37.7227 759.061 37.1074 760.168 36.6973C761.316 36.2871 762.321 36.123 763.183 36.2051C764.044 36.2461 764.721 36.5537 765.213 37.1279C765.705 37.7021 765.869 38.584 765.705 39.7734C765.705 41.373 765.192 42.7676 764.167 43.957C763.183 45.1465 762.075 46.2129 760.845 47.1562C759.655 48.0996 758.548 48.9609 757.522 49.7402C756.538 50.4785 756.046 51.1758 756.046 51.832C756.046 52.2012 756.251 52.4883 756.661 52.6934C757.112 52.8984 757.625 53.0625 758.199 53.1855C758.773 53.2676 759.348 53.3291 759.922 53.3701C760.496 53.4111 760.906 53.4521 761.152 53.4932C765.008 52.6729 767.899 52.1807 769.827 52.0166C771.755 51.8115 772.965 51.832 773.457 52.0781C773.949 52.2832 773.847 52.6318 773.149 53.124C772.493 53.5752 771.468 54.0674 770.073 54.6006C768.679 55.0928 767.059 55.5439 765.213 55.9541C763.367 56.3643 761.542 56.6104 759.737 56.6924C757.933 56.7334 756.251 56.5488 754.692 56.1387C753.175 55.7285 752.047 54.9492 751.309 53.8008ZM762.075 39.7734C761.255 39.7734 760.476 39.999 759.737 40.4502C758.999 40.9014 758.322 41.4756 757.707 42.1729C757.133 42.8291 756.641 43.5674 756.23 44.3877C755.82 45.167 755.513 45.9053 755.308 46.6025C755.39 46.6436 755.451 46.6641 755.492 46.6641H755.677C756.251 46.6641 756.907 46.418 757.646 45.9258C758.384 45.4336 759.081 44.8389 759.737 44.1416C760.394 43.4033 760.947 42.6445 761.398 41.8652C761.85 41.0859 762.075 40.3887 762.075 39.7734ZM779.732 53.001C779.732 52.9189 779.835 52.7754 780.04 52.5703C780.245 52.3652 780.409 52.2422 780.532 52.2012C780.696 52.1602 781.004 52.1396 781.455 52.1396C781.906 52.0986 782.378 52.0576 782.87 52.0166C783.403 51.9756 783.896 51.9551 784.347 51.9551C784.798 51.9141 785.105 51.8936 785.27 51.8936C785.27 53.042 785.064 54.1289 784.654 55.1543C784.285 56.1387 783.444 56.7539 782.132 57C781.599 57.082 781.168 56.959 780.84 56.6309C780.553 56.3027 780.327 55.8926 780.163 55.4004C779.999 54.9082 779.876 54.4365 779.794 53.9854C779.753 53.4932 779.732 53.165 779.732 53.001ZM782.07 30.4219C782.07 29.1914 782.214 28.0225 782.501 26.915C782.788 25.7666 783.137 24.6592 783.547 23.5928C783.957 22.5264 784.388 21.46 784.839 20.3936C785.331 19.3271 785.762 18.2402 786.131 17.1328C786.295 16.6406 786.562 15.7588 786.931 14.4873C787.341 13.1748 787.751 11.8008 788.161 10.3652C788.612 8.92969 789.022 7.57617 789.392 6.30469C789.761 4.99219 790.007 4.08984 790.13 3.59766C790.294 2.44922 790.807 1.64941 791.668 1.19824C792.57 0.706055 793.514 0.459961 794.498 0.459961C794.498 3.41309 794.047 6.22266 793.145 8.88867C792.283 11.5137 791.278 14.0977 790.13 16.6406C788.981 19.1836 787.854 21.7471 786.746 24.3311C785.68 26.874 784.941 29.54 784.531 32.3291H784.162C782.768 32.3291 782.07 31.6934 782.07 30.4219ZM819.6 13.749C819.6 14.4463 819.579 15.1025 819.538 15.7178C819.497 16.292 819.354 16.8252 819.107 17.3174C818.902 17.7686 818.554 18.1582 818.062 18.4863C817.61 18.7734 816.975 18.999 816.154 19.1631C815.785 19.2451 815.498 19.2451 815.293 19.1631C815.088 19.04 814.924 18.8965 814.801 18.7324C814.719 18.5273 814.678 18.3223 814.678 18.1172V17.4404C814.678 17.0303 814.739 16.7021 814.862 16.4561C815.026 16.1689 815.19 15.9229 815.354 15.7178C815.56 15.4717 815.744 15.2256 815.908 14.9795C816.072 14.7334 816.154 14.4258 816.154 14.0566C816.154 13.0313 815.97 12.0674 815.601 11.165C815.231 10.2627 814.821 9.38086 814.37 8.51953C813.96 7.61719 813.57 6.71484 813.201 5.8125C812.832 4.91016 812.647 3.94629 812.647 2.9209C813.837 2.9209 814.862 3.29004 815.724 4.02832C816.626 4.72559 817.364 5.62793 817.938 6.73535C818.513 7.80176 818.923 8.9707 819.169 10.2422C819.456 11.5137 819.6 12.6826 819.6 13.749ZM809.264 10.3652V11.7803C809.264 12.3545 809.202 12.9287 809.079 13.5029C808.997 14.0361 808.812 14.5078 808.525 14.918C808.238 15.2871 807.787 15.4717 807.172 15.4717C807.049 15.4717 806.885 15.3896 806.68 15.2256C806.516 15.0205 806.434 14.8564 806.434 14.7334C806.68 13.3389 806.741 12.1494 806.618 11.165C806.536 10.1807 806.352 9.36035 806.064 8.7041C805.777 8.00684 805.429 7.41211 805.019 6.91992C804.649 6.42773 804.28 5.95605 803.911 5.50488C803.542 5.05371 803.234 4.58203 802.988 4.08984C802.742 3.59766 802.619 3.00293 802.619 2.30566C803.768 2.30566 804.752 2.53125 805.572 2.98242C806.434 3.39258 807.131 3.9668 807.664 4.70508C808.238 5.44336 808.648 6.30469 808.895 7.28906C809.141 8.27344 809.264 9.29883 809.264 10.3652Z" fill="#3B1405"/>
</svg>
