<svg width="184" height="172" viewBox="0 0 184 172" fill="none" xmlns="http://www.w3.org/2000/svg">
<path d="M182 86C182 132.267 141.835 170 92 170C42.1652 170 2 132.267 2 86C2 39.733 42.1652 2 92 2C141.835 2 182 39.733 182 86Z" fill="#DAB787" fill-opacity="0.91" stroke="#74402A" stroke-width="4"/>
<path d="M34.9393 109.939C34.3536 110.525 34.3536 111.475 34.9393 112.061L44.4853 121.607C45.0711 122.192 46.0208 122.192 46.6066 121.607C47.1924 121.021 47.1924 120.071 46.6066 119.485L38.1213 111L46.6066 102.515C47.1924 101.929 47.1924 100.979 46.6066 100.393C46.0208 99.8076 45.0711 99.8076 44.4853 100.393L34.9393 109.939ZM147 109.5H93.5V112.5H147V109.5ZM93.5 109.5L36 109.5V112.5L93.5 112.5V109.5Z" fill="#74402A"/>
<path d="M43.32 82.384C41.208 82.384 39.3413 81.9573 37.72 81.104C36.12 80.2507 34.8613 78.9707 33.944 77.264C33.048 75.536 32.6 73.4027 32.6 70.864C32.6 68.4107 33.048 66.32 33.944 64.592C34.84 62.864 36.0667 61.5627 37.624 60.688C39.2027 59.8133 40.984 59.376 42.968 59.376C44.376 59.376 45.7093 59.5893 46.968 60.016C48.248 60.4427 49.304 61.008 50.136 61.712V65.36C50.136 65.68 49.976 65.84 49.656 65.84C49.4 65.84 49.1973 65.7547 49.048 65.584C48.92 65.392 48.8133 65.0933 48.728 64.688L48.28 62.48C47.7253 62.0533 47.0107 61.7227 46.136 61.488C45.2613 61.2533 44.3333 61.136 43.352 61.136C40.8347 61.136 38.84 61.9893 37.368 63.696C35.9173 65.4027 35.192 67.792 35.192 70.864C35.192 72.9333 35.5227 74.704 36.184 76.176C36.8667 77.6267 37.816 78.736 39.032 79.504C40.2693 80.2507 41.72 80.624 43.384 80.624C44.152 80.624 44.9093 80.5493 45.656 80.4C46.4027 80.2507 47.0747 80.0373 47.672 79.76V72.464H44.184C43.8427 72.464 43.672 72.2507 43.672 71.824C43.672 71.5467 43.768 71.3333 43.96 71.184C44.1733 71.0133 44.4613 70.928 44.824 70.928H52.248C52.4827 70.928 52.6 71.0667 52.6 71.344C52.6 71.536 52.536 71.696 52.408 71.824C52.28 71.9307 52.0667 72.0267 51.768 72.112L50.232 72.496V80.784C49.2933 81.296 48.1947 81.6907 46.936 81.968C45.6773 82.2453 44.472 82.384 43.32 82.384ZM62.6408 82.384C60.3581 82.384 58.5554 81.6587 57.2328 80.208C55.9101 78.7573 55.2488 76.752 55.2488 74.192C55.2488 71.6533 55.9101 69.6587 57.2328 68.208C58.5768 66.7573 60.3794 66.032 62.6408 66.032C64.9234 66.032 66.7261 66.7573 68.0488 68.208C69.3928 69.6587 70.0648 71.6533 70.0648 74.192C70.0648 76.752 69.3928 78.7573 68.0488 80.208C66.7261 81.6587 64.9234 82.384 62.6408 82.384ZM62.6728 80.816C64.2301 80.816 65.4461 80.24 66.3208 79.088C67.1954 77.936 67.6328 76.304 67.6328 74.192C67.6328 72.1013 67.1954 70.48 66.3208 69.328C65.4461 68.176 64.2301 67.6 62.6728 67.6C61.0941 67.6 59.8674 68.176 58.9928 69.328C58.1181 70.48 57.6808 72.1013 57.6808 74.192C57.6808 76.304 58.1181 77.936 58.9928 79.088C59.8674 80.24 61.0941 80.816 62.6728 80.816ZM82.8665 82C82.7385 82 82.6318 81.9573 82.5465 81.872C82.4612 81.7653 82.4185 81.6267 82.4185 81.456C82.4185 81.1787 82.5145 80.9653 82.7065 80.816C82.8985 80.6667 83.2078 80.5493 83.6345 80.464L84.6905 80.272V61.488L83.6345 61.296C82.8238 61.1253 82.4185 60.7947 82.4185 60.304C82.4185 60.1333 82.4612 60.0053 82.5465 59.92C82.6318 59.8133 82.7385 59.76 82.8665 59.76H92.2105C94.4292 59.76 96.1678 60.2613 97.4265 61.264C98.6852 62.2453 99.3145 63.6747 99.3145 65.552C99.3145 66.6827 99.0265 67.6427 98.4505 68.432C97.8958 69.2213 97.1065 69.808 96.0825 70.192V70.32C97.4905 70.7253 98.5998 71.3973 99.4105 72.336C100.221 73.2747 100.627 74.4587 100.627 75.888C100.627 77.872 99.9758 79.3867 98.6745 80.432C97.3732 81.4773 95.6132 82 93.3945 82H82.8665ZM92.6265 69.648C93.8425 69.648 94.8238 69.2853 95.5705 68.56C96.3385 67.8347 96.7225 66.8427 96.7225 65.584C96.7225 64.2827 96.3172 63.2693 95.5065 62.544C94.6958 61.8187 93.5438 61.456 92.0505 61.456H87.2185V69.648H92.6265ZM93.0105 80.304C94.6745 80.304 95.9225 79.9093 96.7545 79.12C97.6078 78.3307 98.0345 77.232 98.0345 75.824C98.0345 74.4587 97.6185 73.3707 96.7865 72.56C95.9545 71.728 94.7812 71.312 93.2665 71.312H87.2185V80.304H93.0105ZM108.773 82.384C107.429 82.384 106.277 82 105.317 81.232C104.357 80.464 103.877 79.3867 103.877 78C103.877 76.5067 104.41 75.3973 105.477 74.672C106.543 73.9253 107.951 73.424 109.701 73.168L114.213 72.496V71.088C114.213 70.0427 113.893 69.2 113.253 68.56C112.613 67.92 111.717 67.6 110.565 67.6C109.903 67.6 109.157 67.7173 108.325 67.952C107.514 68.1867 106.842 68.4747 106.309 68.816L106.053 70.224C105.946 70.8427 105.669 71.152 105.221 71.152C105.071 71.152 104.954 71.12 104.869 71.056C104.783 70.9707 104.741 70.864 104.741 70.736V67.824C105.594 67.312 106.575 66.8853 107.685 66.544C108.815 66.2027 109.893 66.032 110.917 66.032C112.581 66.032 113.946 66.48 115.013 67.376C116.079 68.272 116.613 69.52 116.613 71.12V80.528L117.797 80.848C118.095 80.9333 118.309 81.04 118.437 81.168C118.586 81.2747 118.661 81.424 118.661 81.616C118.661 81.872 118.543 82 118.309 82H114.277V79.76H114.149C113.573 80.5493 112.826 81.1893 111.909 81.68C110.991 82.1493 109.946 82.384 108.773 82.384ZM109.509 80.752C110.298 80.752 111.055 80.5707 111.781 80.208C112.506 79.824 113.093 79.312 113.541 78.672C113.989 78.032 114.213 77.328 114.213 76.56V74L110.245 74.64C108.986 74.8533 108.015 75.216 107.333 75.728C106.65 76.2187 106.309 76.9333 106.309 77.872C106.309 78.8107 106.607 79.5253 107.205 80.016C107.802 80.5067 108.57 80.752 109.509 80.752ZM127.772 82.384C125.404 82.384 123.526 81.648 122.14 80.176C120.774 78.704 120.092 76.7093 120.092 74.192C120.092 72.528 120.401 71.0773 121.02 69.84C121.638 68.6027 122.502 67.664 123.612 67.024C124.721 66.3627 126.012 66.032 127.484 66.032C128.529 66.032 129.564 66.224 130.588 66.608C131.612 66.992 132.39 67.44 132.924 67.952V70.8C132.924 70.928 132.881 71.0347 132.796 71.12C132.71 71.184 132.582 71.216 132.412 71.216C132.198 71.216 132.028 71.152 131.9 71.024C131.772 70.8747 131.676 70.64 131.612 70.32L131.324 68.752C130.94 68.4107 130.417 68.144 129.756 67.952C129.094 67.7387 128.422 67.632 127.74 67.632C126.161 67.632 124.892 68.208 123.932 69.36C122.972 70.4907 122.492 72.1013 122.492 74.192C122.492 76.2827 122.982 77.9147 123.964 79.088C124.966 80.24 126.278 80.816 127.9 80.816C129.35 80.816 130.662 80.4 131.836 79.568C131.878 79.5467 131.964 79.4933 132.092 79.408C132.22 79.3013 132.348 79.248 132.476 79.248C132.668 79.248 132.828 79.3227 132.956 79.472C133.084 79.6213 133.148 79.8027 133.148 80.016C133.148 80.4213 132.796 80.8267 132.092 81.232C130.769 82 129.329 82.384 127.772 82.384ZM135.863 82C135.521 82 135.351 81.7867 135.351 81.36C135.351 81.0827 135.447 80.8693 135.639 80.72C135.852 80.5707 136.129 80.496 136.471 80.496H137.463V60.784H135.863C135.521 60.784 135.351 60.5707 135.351 60.144C135.351 59.8453 135.447 59.632 135.639 59.504C135.852 59.3547 136.129 59.28 136.471 59.28H139.863V80.496L141.367 80.848C141.943 80.976 142.231 81.232 142.231 81.616C142.231 81.872 142.103 82 141.847 82H135.863ZM139.863 73.712L146.167 67.92H144.247C143.884 67.92 143.703 67.696 143.703 67.248C143.703 66.9493 143.809 66.7253 144.023 66.576C144.236 66.4267 144.524 66.352 144.887 66.352H150.167C150.444 66.352 150.583 66.5227 150.583 66.864C150.583 67.0773 150.497 67.2587 150.327 67.408C150.156 67.536 149.932 67.6213 149.655 67.664L148.375 67.92L142.551 73.36L149.175 80.496L150.583 80.816C151.201 80.944 151.511 81.2 151.511 81.584C151.511 81.8613 151.383 82 151.127 82H147.319L139.863 73.712Z" fill="#74402A"/>
</svg>
