<svg width="72" height="72" viewBox="0 0 72 72" fill="none" xmlns="http://www.w3.org/2000/svg">
<g clip-path="url(#clip0_19_291)">
<path d="M2.47992 18.7647C4.10104 16.5516 6.60725 15.1538 9.34298 14.9371L54.2468 11.3791L54.6868 8.88314C55.4254 4.70996 58.745 1.47825 62.9374 0.858237L68.541 0.0262996C69.8775 -0.170013 71.1207 0.753612 71.3194 2.08772C71.5175 3.42535 70.594 4.66903 69.2581 4.86661V4.86549L63.6526 5.69616C61.5475 6.00807 59.8743 7.63468 59.5041 9.7335L51.909 52.7836C51.1956 56.8245 47.6865 59.7683 43.5832 59.7696H12.3685C11.0177 59.7696 9.92249 58.6738 9.92249 57.3241C9.92249 55.9731 11.0177 54.8775 12.3685 54.8775H43.5832C45.3104 54.8788 46.7913 53.6349 47.0912 51.9337L47.7944 47.9471H13.3582C8.96596 47.9471 5.15334 44.9166 4.16601 40.6339L0.895355 26.4635C0.73349 25.7604 0.6539 25.0488 0.6539 24.3421C0.6539 22.354 1.28249 20.3963 2.47992 18.7647ZM27.0433 17.6245L16.8524 18.4324V43.8712H27.0433V17.6245ZM30.3044 43.8712H40.4955V16.5589L30.3044 17.3669V43.8712ZM53.5147 15.5271L43.756 16.3V43.8712H48.5138L53.5147 15.5271ZM4.86871 25.5471L8.13754 39.7187C8.69807 42.1484 10.8636 43.8713 13.3582 43.8713H13.5913V18.6913L9.66416 19.0018C8.1104 19.1236 6.68657 19.9181 5.76801 21.1741C5.08766 22.1011 4.73006 23.2124 4.73006 24.3418C4.73019 24.7428 4.7759 25.145 4.86871 25.5471Z" fill="#F3ECEC"/>
<path d="M41.717 63.3045C44.1183 63.3045 46.0635 65.2525 46.0635 67.6534C46.0635 70.0543 44.1184 72 41.717 72C39.3154 72 37.3679 70.0543 37.3679 67.6534C37.3679 65.2525 39.3155 63.3045 41.717 63.3045Z" fill="#F3ECEC"/>
<path d="M18.3461 63.3045C20.747 63.3045 22.6932 65.2525 22.6932 67.6534C22.6932 70.0543 20.747 72 18.3461 72C15.9453 72 13.9977 70.0543 13.9977 67.6534C13.9977 65.2525 15.9452 63.3045 18.3461 63.3045Z" fill="#F3ECEC"/>
</g>
<defs>
<clipPath id="clip0_19_291">
<rect width="72" height="72" fill="white" transform="matrix(-1 0 0 1 72 0)"/>
</clipPath>
</defs>
</svg>
